<svg xmlns="http://www.w3.org/2000/svg"  viewBox="0 0 50 50" width="50px" height="50px"><path d="M 9.6601562 3.0019531 C 5.9935294 3.0019531 3 5.9954824 3 9.6621094 L 3 40.339844 C 3 44.007298 5.9935293 47.001953 9.6601562 47.001953 L 40.339844 47.001953 C 44.007298 47.001953 47.001953 44.008211 47.001953 40.341797 L 47.001953 9.6621094 C 47.001953 5.9946553 44.006257 3.0019531 40.339844 3.0019531 L 9.6601562 3.0019531 z M 9.6601562 5.0019531 L 14 5.0019531 L 14 20.001953 A 1.0001 1.0001 0 0 0 14.097656 20.431641 L 24.097656 41.431641 A 1.0001 1.0001 0 0 0 25.902344 41.431641 L 35.902344 20.431641 A 1.0001 1.0001 0 0 0 36 20.001953 L 36 5.0019531 L 40.339844 5.0019531 C 42.92543 5.0019531 45.001953 7.0755635 45.001953 9.6621094 L 45.001953 40.341797 C 45.001953 42.927383 42.92639 45.001953 40.339844 45.001953 L 9.6601562 45.001953 C 7.0747833 45.001953 5 42.92639 5 40.339844 L 5 9.6621094 C 5 7.0767364 7.0747833 5.0019531 9.6601562 5.0019531 z M 16 5.0019531 L 20 5.0019531 L 20 17.001953 C 18.462659 17.001953 17.176376 17.446607 16 18.121094 L 16 5.0019531 z M 22 5.0019531 L 28 5.0019531 L 28 20.755859 C 26.945347 20.496361 26.076505 19.981907 25.125 19.220703 C 24.296023 18.557522 23.231278 17.932524 22 17.496094 L 22 5.0019531 z M 30 5.0019531 L 34 5.0019531 L 34 19.525391 C 32.927301 20.328255 31.428071 20.711113 30 20.855469 L 30 5.0019531 z M 20 19.001953 C 21.666667 19.001953 22.625 19.783203 23.875 20.783203 C 25.125 21.783203 26.666667 23.001953 29 23.001953 C 30.183572 23.001953 31.494082 22.829629 32.746094 22.408203 L 27.226562 34.001953 L 22.773438 34.001953 L 16.261719 20.326172 C 17.455402 19.485253 18.529552 19.001953 20 19.001953 z"/></svg>